<?xml version="1.0" standalone="no"?>
<!DOCTYPE svg PUBLIC "-//W3C//DTD SVG 20010904//EN"
 "http://www.w3.org/TR/2001/REC-SVG-20010904/DTD/svg10.dtd">
<svg version="1.0" xmlns="http://www.w3.org/2000/svg"
 width="260.000000pt" height="260.000000pt" viewBox="0 0 260.000000 260.000000"
 preserveAspectRatio="xMidYMid meet">
<metadata>
Created by potrace 1.14, written by Peter Selinger 2001-2017
</metadata>
<g transform="translate(0.000000,260.000000) scale(0.100000,-0.100000)"
fill="#000000" stroke="none">
<path d="M445 2130 c-122 -9 -150 -36 -160 -151 -7 -76 -7 -1260 0 -1371 7
-102 16 -123 67 -149 43 -22 44 -22 668 -22 1202 1 1180 1 1222 28 65 43 63
20 63 836 l0 735 -25 37 c-15 22 -39 42 -60 49 -26 8 -255 12 -870 12 -459 1
-866 -1 -905 -4z m551 -72 c11 -11 10 -127 -1 -131 -5 -2 -102 -3 -215 -3
l-205 1 -3 67 c-3 63 -2 67 20 70 43 6 397 2 404 -4z m1161 -72 c4 -4 7 -161
4 -243 l-1 -32 -857 1 c-503 0 -863 4 -869 9 -12 10 -8 108 4 121 4 4 162 8
352 10 190 1 351 4 358 6 7 3 26 31 43 64 16 32 38 62 49 66 21 8 909 6 917
-2z m-681 -390 c193 -91 295 -311 233 -505 -39 -122 -146 -232 -269 -276 -58
-21 -180 -28 -239 -13 -155 38 -302 177 -327 310 -30 164 15 311 127 412 128
115 320 144 475 72z m689 -949 l1 -69 -862 4 c-474 2 -865 6 -869 10 -8 8 -13
116 -6 123 2 3 394 4 870 3 l866 -3 0 -68z"/>
<path d="M1237 1488 c-91 -19 -165 -79 -204 -165 -62 -136 -5 -291 131 -358
70 -34 185 -37 249 -6 186 91 226 316 81 456 -62 60 -171 92 -257 73z m82
-107 c24 -15 4 -40 -52 -65 -48 -21 -57 -29 -72 -70 -23 -59 -35 -70 -63 -51
-21 16 -22 38 -3 87 28 71 141 130 190 99z"/>
</g>
</svg>
